<?xml version="1.0" encoding="utf-8"?>
<!-- Uploaded to: SVG Repo, www.svgrepo.com, Generator: SVG Repo Mixer Tools -->
<svg fill="#4767a4" width="800px" height="800px" viewBox="0 0 32 32" version="1.1" xmlns="http://www.w3.org/2000/svg">
<title>target</title>
<path d="M30 14.75h-2.824c-0.608-5.219-4.707-9.318-9.874-9.921l-0.053-0.005v-2.824c0-0.69-0.56-1.25-1.25-1.25s-1.25 0.56-1.25 1.25v0 2.824c-5.219 0.608-9.318 4.707-9.921 9.874l-0.005 0.053h-2.824c-0.69 0-1.25 0.56-1.25 1.25s0.56 1.25 1.25 1.25v0h2.824c0.608 5.219 4.707 9.318 9.874 9.921l0.053 0.005v2.824c0 0.69 0.56 1.25 1.25 1.25s1.25-0.56 1.25-1.25v0-2.824c5.219-0.608 9.318-4.707 9.921-9.874l0.005-0.053h2.824c0.69 0 1.25-0.56 1.25-1.25s-0.56-1.25-1.25-1.25v0zM16 24.75c-4.832 0-8.75-3.918-8.75-8.75s3.918-8.75 8.75-8.75c4.832 0 8.75 3.918 8.75 8.75v0c-0.006 4.83-3.92 8.744-8.749 8.75h-0.001zM16 10.75c-2.899 0-5.25 2.351-5.25 5.25s2.351 5.25 5.25 5.25c2.899 0 5.25-2.351 5.25-5.25v0c-0.004-2.898-2.352-5.246-5.25-5.25h-0zM16 18.75c-1.519 0-2.75-1.231-2.75-2.75s1.231-2.75 2.75-2.75c1.519 0 2.75 1.231 2.75 2.75v0c-0.002 1.518-1.232 2.748-2.75 2.75h-0z"></path>
</svg>